<svg width="200" height="54" viewBox="0 0 200 54" xmlns="http://www.w3.org/2000/svg">
  <defs>
    <linearGradient id="metalGradient" x1="0%" y1="0%" x2="0%" y2="100%">
      <stop offset="0%" style="stop-color:#666666"/>
      <stop offset="30%" style="stop-color:#ffffff"/>
      <stop offset="70%" style="stop-color:#ffffff"/>
      <stop offset="100%" style="stop-color:#888888"/>
    </linearGradient>
  </defs>
  <!-- L -->
  <polygon points="0,0 16,0 16,38 56,38 56,54 0,54" fill="url(#metalGradient)"/>
  <!-- U -->
  <path d="M62,0 L78,0 L78,32 C78,42 86,48 100,48 C114,48 122,42 122,32 L122,0 L138,0 L138,32 C138,48 122,54 100,54 C78,54 62,48 62,32 Z" fill="url(#metalGradient)"/>
  <!-- X -->
  <polygon points="144,0 164,0 182,22 200,0 200,0 182,26 200,54 180,54 164,34 148,54 144,54 160,26" fill="url(#metalGradient)"/>
</svg>
